# xmcd
#
# Track frame offsets:
#	150
#	20583
#	40778
#	63345
#	80095
#	102470
#	123618
#	139630
#	157788
#	175698
#	190415
#	206615
#
# Disc length: 2990 seconds
#
# Revision: 0
# Processed by: cddbd v1.5.1PL0 Copyright (c) Steve Scherf et al.
# Submitted via: dBpowerAMP V4.0
#
DISCID=a10bac0c
DTITLE=Rico McFarlane - Tired of Being Alone
DYEAR=2001
DGENRE=Blues
TTITLE0=Bad Attitude
TTITLE1=It Ain't No Fun To Me
TTITLE2=What If God Were One Of Us?
TTITLE3=Blues Falling Down Like Rain
TTITLE4=Tired of Being Alone
TTITLE5=Johnny B
TTITLE6=Giving Me The Blues
TTITLE7=Little By Little
TTITLE8=The Other One
TTITLE9=Made Up My Mind
TTITLE10=You Got What You Wanted
TTITLE11=Rockin' Chair
EXTD=
EXTT0=
EXTT1=
EXTT2=
EXTT3=
EXTT4=
EXTT5=
EXTT6=
EXTT7=
EXTT8=
EXTT9=
EXTT10=
EXTT11=
PLAYORDER=
